<svg xmlns="http://www.w3.org/2000/svg" viewBox="0 0 512 512">
  <defs>
    <linearGradient id="bg" x1="0" y1="0" x2="1" y2="1">
      <stop offset="0%" stop-color="#0d9488"/>
      <stop offset="100%" stop-color="#115e59"/>
    </linearGradient>
  </defs>
  <!-- Background with rounded corners (app icon style) -->
  <rect width="512" height="512" rx="90" fill="url(#bg)"/>
  <!-- Decorative circle behind books -->
  <circle cx="256" cy="340" r="180" fill="rgba(255,255,255,.06)"/>
  <!-- Book 1: amber -->
  <rect x="96" y="290" width="52" height="158" rx="9" fill="#fbbf24"/>
  <rect x="96" y="278" width="52" height="20" rx="7" fill="#f59e0b"/>
  <rect x="109" y="300" width="28" height="4" rx="2" fill="rgba(0,0,0,.1)"/>
  <rect x="109" y="312" width="22" height="4" rx="2" fill="rgba(0,0,0,.1)"/>
  <!-- Book 2: teal-green -->
  <rect x="158" y="262" width="56" height="186" rx="9" fill="#34d399"/>
  <rect x="158" y="250" width="56" height="20" rx="7" fill="#10b981"/>
  <rect x="172" y="274" width="30" height="4" rx="2" fill="rgba(0,0,0,.1)"/>
  <rect x="172" y="286" width="24" height="4" rx="2" fill="rgba(0,0,0,.1)"/>
  <!-- Book 3: white/cream (center, tallest) -->
  <rect x="224" y="232" width="64" height="216" rx="9" fill="#f0fdfa"/>
  <rect x="224" y="220" width="64" height="20" rx="7" fill="#ccfbf1"/>
  <rect x="239" y="253" width="34" height="5" rx="2.5" fill="#0f766e" opacity=".25"/>
  <rect x="239" y="267" width="26" height="5" rx="2.5" fill="#0f766e" opacity=".2"/>
  <rect x="239" y="281" width="30" height="5" rx="2.5" fill="#0f766e" opacity=".2"/>
  <rect x="239" y="295" width="22" height="5" rx="2.5" fill="#0f766e" opacity=".15"/>
  <!-- Book 4: coral/pink -->
  <rect x="298" y="262" width="56" height="186" rx="9" fill="#fb7185"/>
  <rect x="298" y="250" width="56" height="20" rx="7" fill="#f43f5e"/>
  <rect x="312" y="274" width="30" height="4" rx="2" fill="rgba(0,0,0,.1)"/>
  <rect x="312" y="286" width="24" height="4" rx="2" fill="rgba(0,0,0,.1)"/>
  <!-- Book 5: purple -->
  <rect x="364" y="290" width="52" height="158" rx="9" fill="#a78bfa"/>
  <rect x="364" y="278" width="52" height="20" rx="7" fill="#8b5cf6"/>
  <rect x="377" y="300" width="28" height="4" rx="2" fill="rgba(0,0,0,.1)"/>
  <rect x="377" y="312" width="22" height="4" rx="2" fill="rgba(0,0,0,.1)"/>
  <!-- Shelf -->
  <rect x="74" y="446" width="364" height="14" rx="7" fill="rgba(255,255,255,.3)"/>
  <!-- Shelf shadow -->
  <rect x="74" y="458" width="364" height="6" rx="3" fill="rgba(0,0,0,.1)"/>
</svg>
